<?xml version="1.0" standalone="no"?>
<!DOCTYPE svg PUBLIC "-//W3C//DTD SVG 20010904//EN"
 "http://www.w3.org/TR/2001/REC-SVG-20010904/DTD/svg10.dtd">
<svg version="1.0" xmlns="http://www.w3.org/2000/svg"
 width="512.000000pt" height="512.000000pt" viewBox="0 0 512.000000 512.000000"
 preserveAspectRatio="xMidYMid meet">

<g transform="translate(0.000000,512.000000) scale(0.100000,-0.100000)"
fill="#000000" stroke="none">
<path d="M2530 5109 c-200 -23 -407 -83 -584 -169 -501 -244 -855 -706 -968
-1262 -20 -97 -23 -143 -23 -333 0 -190 3 -236 23 -333 99 -487 382 -903 795
-1165 67 -43 232 -126 300 -152 76 -28 64 -50 -48 -89 -266 -92 -462 -305
-536 -581 -30 -112 -30 -288 0 -400 29 -109 79 -206 114 -223 35 -17 76 1 95
40 12 25 10 35 -17 97 -49 110 -64 190 -59 316 8 183 64 310 199 446 62 63 93
85 170 122 52 25 122 51 157 58 74 15 100 38 110 99 6 37 11 44 42 54 40 13
64 52 54 90 -9 36 -17 41 -150 87 -559 192 -959 650 -1076 1231 -30 148 -32
442 -5 583 84 430 313 790 660 1038 424 303 999 387 1475 216 155 -55 158 -56
189 -33 38 28 43 81 11 111 -55 50 -339 131 -540 152 -111 13 -279 12 -388 0z"/>
<path d="M3619 4811 c-49 -50 -37 -75 81 -162 114 -84 231 -202 264 -266 127
-252 30 -541 -221 -660 -69 -34 -88 -38 -174 -41 -153 -6 -242 27 -369 137
-164 143 -282 191 -473 191 -320 0 -587 -214 -658 -527 -15 -69 -12 -239 6
-308 46 -180 175 -336 346 -418 274 -132 534 -96 773 108 132 113 211 146 352
146 410 1 625 -486 352 -796 -50 -57 -173 -159 -268 -222 -155 -104 -385 -200
-570 -237 -88 -17 -259 -36 -335 -36 -46 0 -57 -4 -74 -26 -12 -15 -21 -38
-21 -51 0 -24 34 -66 60 -75 13 -4 11 -31 -13 -175 -33 -203 -41 -232 -80
-278 -59 -73 -122 -88 -279 -70 -87 10 -141 -9 -196 -69 -81 -88 -83 -211 -4
-298 66 -73 139 -92 262 -66 82 16 141 -2 201 -62 76 -76 88 -173 33 -268 -49
-83 -157 -125 -324 -125 -145 0 -275 41 -399 127 -30 20 -59 36 -67 36 -51 0
-92 -58 -74 -105 13 -33 78 -80 185 -131 116 -55 187 -73 310 -80 185 -10 338
33 434 122 247 229 85 644 -252 644 -33 0 -77 -5 -97 -11 -54 -16 -87 -5 -106
35 -15 30 -15 35 0 64 20 39 52 48 111 33 139 -35 306 22 387 132 52 72 67
119 104 333 19 115 37 211 39 215 3 3 36 9 76 13 303 28 661 179 914 386 224
184 315 346 315 565 0 192 -80 363 -227 486 -202 170 -513 190 -734 48 -35
-23 -89 -65 -119 -93 -170 -157 -396 -188 -609 -83 -78 38 -174 129 -213 203
-105 195 -66 455 93 613 99 99 224 151 363 151 147 -1 247 -40 362 -143 135
-119 234 -168 384 -186 126 -16 247 6 365 67 90 46 218 172 263 259 95 181 95
417 0 596 -53 99 -225 269 -363 356 -61 38 -79 39 -116 2z"/>
<path d="M3252 4519 c-73 -37 -122 -113 -122 -192 0 -35 40 -77 73 -77 35 0
77 36 77 66 0 28 41 74 65 74 24 0 65 -46 65 -73 0 -31 39 -67 74 -67 16 0 38
11 53 26 23 23 25 31 20 76 -13 104 -94 180 -201 186 -48 2 -70 -2 -104 -19z"/>
<path d="M1959 4501 c-21 -17 -24 -29 -27 -108 -3 -78 -1 -91 18 -116 17 -21
30 -27 60 -27 30 0 43 6 60 27 19 25 21 38 18 116 -3 79 -6 91 -27 108 -13 10
-36 19 -51 19 -15 0 -38 -9 -51 -19z"/>
<path d="M2446 4379 c-19 -15 -26 -29 -26 -56 0 -72 129 -153 243 -153 68 0
112 13 169 49 83 53 104 115 54 158 -37 32 -67 29 -116 -12 -70 -59 -140 -59
-211 1 -47 39 -75 43 -113 13z"/>
</g>
</svg>
